<svg width="1335" height="269" viewBox="0 0 1335 269" fill="none" xmlns="http://www.w3.org/2000/svg">
<path d="M986.783 95.9946C986.783 92.6455 986.462 89.2975 985.924 85.8408C985.383 82.2775 984.198 79.0376 982.365 76.1212C980.533 73.2043 978.055 70.8288 974.93 68.8843C971.804 66.9389 967.493 65.9679 962.103 65.9679C960.053 65.9679 958.006 66.2909 955.854 66.8317C953.911 67.2629 952.187 67.8062 950.68 68.4522C948.845 69.1007 947.119 69.8573 945.505 70.7201V129.044C947.335 130.339 949.276 131.313 951.325 132.176C953.154 132.824 955.206 133.472 957.577 134.013C959.949 134.552 962.424 134.552 965.012 134.013C969.863 133.149 973.636 131.42 976.436 128.829C979.348 126.021 981.505 122.889 983.121 119.324C984.627 115.761 985.602 111.87 986.027 107.875C986.462 103.663 986.783 99.6686 986.783 95.9946ZM910.045 5.80859H945.29V47.4992C946.906 46.6354 948.955 45.8772 951.325 45.2313C953.264 44.5828 955.634 43.9333 958.327 43.6099C961.132 43.0711 964.151 42.7471 967.493 42.7471C978.162 42.7471 986.894 44.1522 993.792 47.066C1000.79 49.9855 1006.4 53.8697 1010.61 58.9484C1014.7 63.8062 1017.61 69.4252 1019.33 75.7977C1020.95 82.1703 1021.81 88.8653 1021.81 95.9946C1021.81 103.663 1020.85 111.117 1018.9 118.46C1017.07 125.697 1014.06 132.176 1009.74 138.009C1005.43 143.732 999.934 148.379 993.146 151.941C986.355 155.397 978.055 157.125 968.246 157.125C958.98 157.235 950.786 156.695 943.566 155.506C936.344 154.426 930.306 153.131 925.349 151.51C919.53 149.888 914.465 147.946 910.045 145.677V5.80859Z" fill="#193054"/>
<path d="M1052.32 122.348C1052.32 126.778 1053.72 130.016 1056.63 131.854C1059.54 133.689 1062.99 134.553 1066.97 134.553C1071.72 134.553 1075.7 134.339 1079.05 133.906C1082.5 133.365 1085.19 132.718 1087.13 132.068V106.686C1086.05 106.686 1084.54 106.795 1082.6 106.905C1080.77 107.01 1078.83 107.228 1076.78 107.335C1074.84 107.443 1072.9 107.659 1070.96 107.983C1069.13 108.307 1067.84 108.414 1066.87 108.631C1062.88 109.605 1059.43 111.009 1056.52 112.952C1053.72 114.895 1052.32 118.027 1052.32 122.348ZM1025.59 51.2796C1028.6 50.3082 1032.38 49.4423 1037.01 48.5801C1041.54 47.6061 1046.17 46.7423 1050.92 46.0953C1055.77 45.2315 1060.29 44.6902 1064.6 44.257C1069.02 43.7183 1072.58 43.3948 1075.38 43.3948C1081.31 43.3948 1087.13 43.8264 1092.84 44.7989C1098.56 45.6611 1103.51 47.3892 1107.93 49.9847C1112.35 52.574 1115.91 56.2476 1118.49 60.9987C1121.3 65.7534 1122.59 71.9096 1122.59 79.4705V150.107C1122.59 150.107 1121.3 150.538 1118.6 151.401C1116.12 152.049 1112.57 152.914 1107.83 153.885C1103.3 154.75 1097.69 155.506 1091.01 156.154C1084.54 156.801 1077.22 157.234 1069.24 157.234C1062.34 157.234 1055.87 156.911 1049.73 156.154C1043.69 155.506 1038.31 153.993 1033.57 151.832C1028.82 149.457 1025.04 146.216 1021.92 142.113C1019.01 137.792 1017.4 132.066 1016.96 124.83C1016.53 118.349 1017.61 112.95 1020.09 108.63C1022.57 104.202 1025.91 100.638 1030.01 97.829C1034.32 94.9131 1039.17 92.6442 1044.56 91.0258C1050.05 89.4059 1055.66 88.0018 1061.16 87.0283C1063.53 86.5966 1066.11 86.1645 1068.8 85.7339C1071.61 85.3027 1074.2 84.9762 1076.67 84.6527C1079.15 84.3298 1081.31 84.2216 1083.14 84.0053C1085.08 83.8976 1086.27 83.7889 1086.91 83.7889V80.6552C1086.91 77.3077 1086.59 74.7158 1085.84 72.7709C1085.19 70.8275 1084 69.4234 1082.49 68.4514C1081.09 67.4784 1079.37 66.831 1077.1 66.6136C1075.06 66.2901 1072.58 66.183 1069.67 66.183C1066.33 66.183 1062.66 66.6136 1058.46 67.4779C1054.37 68.3427 1050.16 69.3147 1046.07 70.6116C1041.97 71.6902 1038.09 72.9862 1034.43 74.3913C1030.87 75.6883 1027.85 76.7674 1025.48 77.7409L1025.59 51.2796Z" fill="#193054"/>
<path d="M1125.39 75.5806C1125.39 69.7484 1127.01 64.8865 1130.35 60.7829C1133.69 56.6797 1137.79 53.3322 1142.75 50.8465C1147.81 48.2566 1153.42 46.3117 1159.35 45.2315C1165.38 43.9336 1171.2 43.3948 1176.59 43.3948C1181.33 43.3948 1185.75 43.7183 1190.06 44.4754C1194.48 45.0142 1198.58 45.7719 1202.24 46.5275C1206.12 47.3892 1209.68 48.2566 1212.81 49.2265C1215.93 50.199 1218.73 50.9556 1221.1 51.4944C1221.1 51.4944 1221.1 52.7919 1221.1 55.4909C1221.1 58.0833 1221 60.9992 1220.89 64.2401C1220.89 67.3723 1220.78 70.2887 1220.67 72.9877C1220.67 75.4714 1220.67 76.7684 1220.67 76.7684C1218.63 75.4714 1215.93 74.3923 1212.59 73.2045C1209.47 71.9101 1205.91 70.8285 1202.03 69.858C1198.25 68.8846 1194.38 68.1294 1190.39 67.5881C1186.51 66.9396 1182.95 66.509 1179.61 66.509C1177.78 66.509 1175.84 66.6151 1173.57 66.7258C1171.31 66.7258 1169.26 67.0488 1167.32 67.5881C1165.49 68.1294 1163.98 68.9922 1162.79 70.2892C1161.5 71.3678 1160.96 72.9882 1160.96 75.0403C1160.96 77.9577 1162.58 80.2256 1165.7 81.8465C1168.83 83.3558 1172.82 84.8701 1177.56 86.1655C1182.41 87.4604 1187.58 88.7574 1193.08 90.2707C1198.58 91.6738 1203.75 93.6192 1208.39 96.3188C1213.23 98.9107 1217.12 102.368 1220.24 106.687C1223.37 110.79 1224.98 116.299 1224.98 123.106C1224.98 129.155 1223.69 134.446 1221 138.874C1218.41 143.195 1214.74 146.759 1210 149.676C1205.48 152.484 1199.87 154.428 1193.19 155.722C1186.72 157.127 1179.39 157.775 1171.42 157.775C1163.98 157.775 1157.19 157.343 1151.15 156.48C1145.11 155.616 1139.84 154.86 1135.42 153.995C1131.1 153.022 1127.76 152.161 1125.5 151.294C1123.23 150.432 1121.94 149.999 1121.73 149.999V145.895C1121.73 144.6 1121.73 143.303 1121.73 141.791C1121.84 140.171 1121.94 138.445 1121.94 136.606C1121.94 132.718 1122.05 128.181 1122.16 123.106C1124.42 124.076 1127.12 125.265 1130.46 126.669C1133.91 127.965 1137.68 129.045 1141.66 130.232C1145.77 131.313 1150.18 132.392 1154.71 133.365C1159.23 134.23 1163.87 134.662 1168.4 134.771C1170.23 134.771 1172.28 134.771 1174.65 134.771C1177.02 134.662 1179.18 134.339 1181.33 133.69C1183.38 133.042 1185.11 132.069 1186.5 130.991C1188.01 129.693 1188.77 127.965 1188.77 125.588C1188.77 122.675 1187.15 120.405 1184.03 118.786C1181.01 117.167 1177.13 115.652 1172.39 114.465C1167.64 113.062 1162.58 111.658 1157.08 110.144C1151.58 108.525 1146.41 106.364 1141.77 103.664C1137.03 100.855 1133.15 97.2928 1129.92 92.8621C1126.9 88.3258 1125.39 82.6012 1125.39 75.5806Z" fill="#193054"/>
<path d="M1298.38 87.4601C1298.28 84.4366 1297.74 81.6284 1296.98 78.9273C1296.12 76.3375 1294.94 73.9619 1293.21 72.1236C1291.59 70.1818 1289.44 68.6674 1286.75 67.5873C1284.16 66.5082 1281.03 65.9679 1277.37 65.9679C1270.04 65.9679 1264.65 67.9118 1261.2 71.8007C1257.86 75.689 1253.76 81.9524 1254.19 92.1067L1298.38 87.4601ZM1254.73 109.062C1255.27 115.544 1257.64 121.593 1261.52 126.128C1263.89 128.506 1266.8 130.449 1270.47 132.176C1274.03 133.689 1278.44 134.445 1283.73 134.445C1298.38 133.365 1314.44 130.99 1327.27 125.804L1323.61 153.131C1308.51 157.343 1293.97 157.343 1279.96 157.343C1270.58 157.343 1262.17 156.046 1254.62 153.346C1247.19 150.756 1240.83 146.975 1235.54 142.114C1230.48 137.146 1226.38 131.096 1223.48 124.076C1220.67 116.842 1219.38 108.739 1219.38 99.7747C1219.38 90.4862 1220.89 82.2779 1223.9 75.2579C1226.93 68.2378 1231.13 62.2974 1236.3 57.6504C1241.69 52.7926 1247.94 49.2273 1254.95 46.8522C1261.95 44.367 1269.5 43.0715 1277.37 43.0715C1285.02 43.0715 1291.92 44.2573 1298.06 46.6354C1304.42 49.0114 1309.92 52.2513 1314.44 56.355C1319.19 60.4596 1322.96 65.3204 1325.87 70.9369C1328.78 76.338 1330.72 82.1708 1331.69 88.4342C1332.23 91.7827 1332.55 95.1302 1332.76 98.5879C1332.87 102.044 1332.66 105.607 1332.12 109.171L1255.27 115.761" fill="#193054"/>
<path d="M378.77 154.595H305.404V43.54H378.77V55.9655H323.488V90.3963H375.154V102.823H323.488V142.428H378.77V154.595Z" fill="#4D86D6"/>
<path d="M487.784 154.595H467.377L433.278 106.444L397.884 154.595H379.804L423.46 96.6072L382.644 43.54H401.764L433.793 85.994L466.083 43.54H484.426L443.869 96.0899L487.784 154.595Z" fill="#4D86D6"/>
<path d="M574.584 76.1573C574.584 80.8164 573.809 85.2163 572 89.3581C570.192 93.5011 567.35 97.3849 563.218 100.748C559.084 104.114 553.918 106.702 547.2 108.514C540.486 110.326 532.475 111.362 522.661 111.362H508.192V154.595H490.112V43.54H524.987C533.508 43.54 541.003 44.3165 547.201 45.8708C553.405 47.1646 558.568 49.4929 562.703 52.0841C566.837 54.9309 569.678 58.295 571.742 62.1801C573.549 66.3207 574.584 70.981 574.584 76.1573ZM507.933 99.4565H520.334C526.274 99.4565 531.443 98.9355 536.092 98.1627C540.485 97.3861 544.357 96.0899 547.199 94.2777C550.04 92.4666 552.364 90.1358 553.917 87.289C555.468 84.4422 556.242 80.8177 556.242 76.6758C556.242 69.4292 553.655 64.2492 548.231 60.627C543.066 57.0025 534.798 55.4495 523.436 55.4495H507.934L507.933 99.4565Z" fill="#4D86D6"/>
<path d="M593.697 109.032V154.853H575.616V43.7979H609.971C627.021 43.7979 639.682 46.3866 647.947 51.5655C656.213 56.7418 660.085 64.765 660.085 75.3794C660.085 79.7817 659.31 83.6631 657.763 87.0296C656.213 90.3949 654.146 93.2417 651.562 95.5725C648.98 97.9032 646.139 99.9723 642.782 101.528C639.422 103.081 636.062 104.375 632.446 105.41L670.938 155.113H649.756L615.659 109.034H593.697M593.697 97.1255H609.455C615.14 97.1255 620.048 96.607 624.179 95.8305C628.313 94.7947 631.67 93.5021 633.999 91.9479C636.58 90.1356 638.649 88.0665 639.68 85.4753C640.971 82.8877 641.489 79.7817 641.489 76.1584C641.489 72.5338 640.712 69.4277 639.42 66.8389C638.129 64.2477 636.061 62.1786 633.478 60.6256C630.898 59.0726 627.54 57.7764 623.408 57.0011C619.272 56.2258 614.619 55.9653 608.937 55.9653H593.442L593.697 97.1255Z" fill="#4D86D6"/>
<path d="M744.304 154.595H670.939V43.54H744.304V55.9655H689.021V90.3963H740.687V102.823H689.021V142.428H744.304V154.595Z" fill="#4D86D6"/>
<path d="M830.067 125.084C830.067 130.001 829.035 134.402 826.71 138.284C824.643 142.168 821.286 145.275 817.152 148.122C813.017 150.712 808.108 152.782 802.171 154.333C796.23 155.628 789.512 156.407 782.275 156.407C775.046 156.407 768.329 155.89 762.129 155.112C755.925 154.333 750.762 153.041 746.628 151.229V137.51C748.694 138.285 751.279 139.062 754.119 139.839C756.96 140.615 759.806 141.392 762.901 141.91C766.003 142.427 769.105 142.947 772.462 143.464C775.819 143.721 778.92 143.982 782.275 143.982C792.611 143.982 800.102 142.427 805.012 139.322C809.919 136.215 812.502 131.815 812.502 126.38C812.502 123.53 811.989 121.202 810.954 119.131C810.176 117.059 808.368 115.248 806.044 113.694C803.719 111.883 800.619 110.33 796.745 108.778C792.868 107.222 787.964 105.411 781.762 103.599C776.08 101.787 771.171 99.9733 766.78 97.9042C762.647 95.8327 759.029 93.5032 756.447 90.6552C753.864 88.0676 751.794 84.9591 750.246 81.5962C748.955 78.2297 748.439 74.3459 748.439 70.2041C748.439 65.8042 749.471 61.6624 751.541 58.2959C753.606 54.6725 756.448 51.8245 760.322 49.4937C763.94 47.1654 768.587 45.0963 773.754 44.0594C778.921 42.7656 784.604 42.2471 791.063 42.2471C798.812 42.2471 805.529 42.7656 811.727 44.0594C817.93 45.0963 823.356 46.6469 828.007 48.4604L821.548 60.3686C817.414 58.8144 812.505 57.5206 807.338 56.486C802.174 55.4503 796.485 54.9318 790.805 54.9318C783.054 54.9318 776.857 56.486 772.464 59.3328C768.074 62.1821 766.005 66.0622 766.005 70.983C766.005 73.8298 766.52 76.4186 767.554 78.4902C768.59 80.5605 770.139 82.3727 772.464 84.185C774.789 85.7393 777.627 87.5503 781.246 88.8441C784.862 90.3983 789.513 91.9502 794.938 93.5044C800.879 95.3167 805.788 97.1278 810.179 99.1993C814.568 101.012 818.445 103.341 821.288 105.671C824.128 107.999 826.453 110.847 828.007 114.212C829.291 116.799 830.067 120.682 830.067 125.084Z" fill="#4D86D6"/>
<path d="M905.5 125.084C905.5 130.001 904.466 134.402 902.143 138.284C900.074 142.168 896.716 145.275 892.584 148.122C888.448 150.712 883.539 152.782 877.6 154.333C871.656 155.628 864.943 156.407 857.708 156.407C850.473 156.407 843.76 155.89 837.557 155.112C831.358 154.333 826.192 153.041 822.059 151.229V137.51C824.124 138.285 826.71 139.062 829.55 139.839C832.391 140.615 835.231 141.392 838.332 141.91C841.435 142.427 844.532 142.947 847.893 143.464C851.25 143.721 854.352 143.982 857.708 143.982C868.044 143.982 875.534 142.427 880.438 139.322C885.349 136.215 887.933 131.815 887.933 126.38C887.933 123.53 887.417 121.202 886.381 119.131C885.609 117.059 883.801 115.248 881.477 113.694C879.151 111.883 876.05 110.33 872.173 108.778C868.299 107.222 863.391 105.411 857.193 103.599C851.512 101.787 846.601 99.9733 842.207 97.9042C838.074 95.8327 834.46 93.5032 831.878 90.6552C829.292 88.0676 827.226 84.9591 825.679 81.5962C824.386 78.2297 823.87 74.3459 823.87 70.2041C823.87 65.8042 824.902 61.6624 826.967 58.2959C829.036 54.6725 831.878 51.8245 835.75 49.4937C839.368 47.1654 844.017 45.0963 849.186 44.0594C854.353 42.7656 860.036 42.2471 866.493 42.2471C874.244 42.2471 880.962 42.7656 887.161 44.0594C893.358 45.0963 898.783 46.6469 903.434 48.4604L896.975 60.3686C892.843 58.8144 887.936 57.5206 882.767 56.486C877.602 55.4503 871.918 54.9318 866.238 54.9318C858.486 54.9318 852.285 56.486 847.895 59.3328C843.501 62.1821 841.437 66.0622 841.437 70.983C841.437 73.8298 841.952 76.4186 842.985 78.4902C844.02 80.5605 845.569 82.3727 847.895 84.185C850.22 85.7393 853.06 87.5503 856.677 88.8441C860.295 90.3983 864.944 91.9502 870.371 93.5044C876.309 95.3167 881.219 97.1278 885.61 99.1993C890.002 101.012 893.876 103.341 896.718 105.671C899.559 107.999 901.883 110.847 903.434 114.212C904.724 116.799 905.5 120.682 905.5 125.084Z" fill="#4D86D6"/>
<path d="M324.442 242.142C319.429 242.142 315.49 240.391 312.626 236.89C309.761 233.349 308.329 228.037 308.329 220.955C308.329 213.833 309.761 208.521 312.626 205.02C315.49 201.519 319.429 199.768 324.442 199.768C329.456 199.768 333.395 201.519 336.259 205.02C339.124 208.521 340.556 213.833 340.556 220.955C340.556 228.037 339.124 233.349 336.259 236.89C333.395 240.391 329.456 242.142 324.442 242.142ZM324.442 237.308C327.745 237.308 330.331 236.074 332.201 233.607C334.111 231.141 335.066 227.42 335.066 222.447V219.463C335.066 214.49 334.111 210.769 332.201 208.303C330.331 205.836 327.745 204.602 324.442 204.602C321.18 204.602 318.594 205.836 316.684 208.303C314.774 210.769 313.819 214.49 313.819 219.463V222.447C313.819 227.42 314.774 231.141 316.684 233.607C318.594 236.074 321.18 237.308 324.442 237.308ZM351.519 241.426V200.484H366.141C368.847 200.484 371.095 200.982 372.885 201.976C374.715 202.971 376.088 204.364 377.003 206.154C377.918 207.945 378.376 210.033 378.376 212.421C378.376 214.808 377.878 216.917 376.884 218.747C375.889 220.577 374.477 222.009 372.646 223.044C370.856 224.039 368.688 224.536 366.141 224.536H356.771V241.426H351.519ZM356.771 219.761H365.962C368.071 219.761 369.742 219.085 370.975 217.732C372.249 216.379 372.885 214.609 372.885 212.421C372.885 210.193 372.288 208.442 371.095 207.169C369.901 205.896 368.19 205.259 365.962 205.259H356.771V219.761ZM388.037 241.426V200.484H413.282V205.259H393.289V218.09H410.656V222.865H393.289V236.651H413.64V241.426H388.037ZM424.554 241.426V200.484H429.09L444.308 226.207C444.627 226.724 444.965 227.42 445.323 228.296C445.721 229.171 446.059 229.967 446.337 230.683C446.656 231.359 446.815 231.698 446.815 231.698L446.994 231.638C446.994 231.638 446.974 231.28 446.934 230.564C446.934 229.847 446.914 229.052 446.874 228.176C446.835 227.301 446.815 226.645 446.815 226.207V200.484H451.53V241.426H447.173L431.835 215.345C431.517 214.748 431.139 214.032 430.701 213.196C430.303 212.321 429.945 211.545 429.627 210.869C429.348 210.193 429.209 209.854 429.209 209.854L429.03 209.914C429.03 209.914 429.05 210.252 429.09 210.929C429.129 211.605 429.169 212.381 429.209 213.256C429.249 214.092 429.269 214.788 429.269 215.345V241.426H424.554ZM493.267 242.142C490.8 242.142 488.512 241.744 486.403 240.948C484.295 240.152 482.604 238.859 481.33 237.069C480.097 235.278 479.48 232.871 479.48 229.847C479.48 229.649 479.48 229.43 479.48 229.191C479.52 228.912 479.54 228.733 479.54 228.654H484.971C484.971 228.694 484.951 228.873 484.911 229.191C484.911 229.469 484.911 229.708 484.911 229.907C484.911 232.414 485.687 234.284 487.239 235.517C488.79 236.711 490.72 237.308 493.028 237.308C495.773 237.308 497.882 236.731 499.354 235.577C500.866 234.383 501.622 232.692 501.622 230.504C501.622 229.032 501.224 227.838 500.428 226.923C499.672 226.008 498.658 225.252 497.385 224.655C496.151 224.058 494.778 223.521 493.267 223.044C491.755 222.566 490.223 222.049 488.671 221.492C487.159 220.935 485.767 220.219 484.493 219.344C483.26 218.468 482.245 217.354 481.45 216.001C480.694 214.609 480.316 212.858 480.316 210.75C480.316 208.243 480.893 206.174 482.047 204.543C483.24 202.911 484.812 201.718 486.761 200.962C488.751 200.166 490.939 199.768 493.326 199.768C495.713 199.768 497.862 200.166 499.772 200.962C501.721 201.718 503.273 202.951 504.427 204.662C505.581 206.333 506.158 208.541 506.158 211.287V212.003H500.727V211.108C500.727 208.999 500.03 207.388 498.638 206.274C497.245 205.159 495.515 204.602 493.446 204.602C491.297 204.602 489.487 205.06 488.015 205.975C486.582 206.89 485.866 208.342 485.866 210.332C485.866 211.724 486.244 212.858 487 213.734C487.796 214.609 488.81 215.345 490.044 215.942C491.317 216.499 492.71 217.016 494.221 217.494C495.733 217.971 497.245 218.488 498.757 219.045C500.269 219.602 501.642 220.318 502.875 221.194C504.148 222.069 505.163 223.183 505.919 224.536C506.715 225.849 507.113 227.54 507.113 229.609C507.113 232.672 506.496 235.119 505.262 236.949C504.069 238.78 502.438 240.113 500.369 240.948C498.3 241.744 495.932 242.142 493.267 242.142ZM532.589 242.142C527.576 242.142 523.637 240.391 520.772 236.89C517.907 233.349 516.475 228.037 516.475 220.955C516.475 213.833 517.907 208.521 520.772 205.02C523.637 201.519 527.576 199.768 532.589 199.768C537.602 199.768 541.541 201.519 544.406 205.02C547.27 208.521 548.703 213.833 548.703 220.955C548.703 228.037 547.27 233.349 544.406 236.89C541.541 240.391 537.602 242.142 532.589 242.142ZM532.589 237.308C535.891 237.308 538.477 236.074 540.347 233.607C542.257 231.141 543.212 227.42 543.212 222.447V219.463C543.212 214.49 542.257 210.769 540.347 208.303C538.477 205.836 535.891 204.602 532.589 204.602C529.326 204.602 526.74 205.836 524.83 208.303C522.92 210.769 521.966 214.49 521.966 219.463V222.447C521.966 227.42 522.92 231.141 524.83 233.607C526.74 236.074 529.326 237.308 532.589 237.308ZM573.154 242.142C568.936 242.142 565.634 240.948 563.247 238.561C560.859 236.174 559.666 232.692 559.666 228.117V200.484H564.918V228.415C564.918 231.32 565.654 233.528 567.126 235.04C568.598 236.552 570.607 237.308 573.154 237.308C575.74 237.308 577.749 236.552 579.181 235.04C580.653 233.528 581.39 231.32 581.39 228.415V200.484H586.641V228.117C586.641 232.692 585.448 236.174 583.061 238.561C580.673 240.948 577.371 242.142 573.154 242.142ZM598.864 241.426V200.484H615.336C619.354 200.484 622.398 201.539 624.467 203.648C626.536 205.716 627.57 208.442 627.57 211.824C627.57 214.37 626.934 216.578 625.661 218.448C624.387 220.279 622.597 221.592 620.289 222.387L628.525 241.426H622.677L615.097 223.342H604.116V241.426H598.864ZM604.116 218.568H615.157C617.266 218.568 618.937 217.951 620.17 216.718C621.443 215.484 622.08 213.853 622.08 211.824C622.08 209.795 621.483 208.203 620.289 207.049C619.096 205.856 617.385 205.259 615.157 205.259H604.116V218.568ZM652.505 242.142C647.213 242.142 643.195 240.391 640.449 236.89C637.744 233.349 636.391 228.037 636.391 220.955C636.391 213.833 637.744 208.521 640.449 205.02C643.195 201.519 647.213 199.768 652.505 199.768C655.29 199.768 657.757 200.345 659.905 201.499C662.054 202.613 663.725 204.324 664.918 206.632C666.152 208.899 666.769 211.784 666.769 215.285H661.397C661.397 211.704 660.582 209.039 658.95 207.288C657.359 205.498 655.21 204.602 652.505 204.602C648.924 204.602 646.258 205.836 644.508 208.303C642.757 210.769 641.882 214.49 641.882 219.463V222.447C641.882 227.42 642.757 231.141 644.508 233.607C646.258 236.074 648.924 237.308 652.505 237.308C655.25 237.308 657.438 236.432 659.07 234.682C660.741 232.931 661.576 230.285 661.576 226.744H666.769C666.769 230.245 666.152 233.15 664.918 235.457C663.725 237.725 662.054 239.416 659.905 240.53C657.757 241.605 655.29 242.142 652.505 242.142ZM677.26 241.426V200.484H702.505V205.259H682.512V218.09H699.879V222.865H682.512V236.651H702.863V241.426H677.26ZM731.236 241.426V200.484H736.488V236.651H753.199V241.426H731.236ZM777.194 242.142C772.181 242.142 768.242 240.391 765.377 236.89C762.513 233.349 761.08 228.037 761.08 220.955C761.08 213.833 762.513 208.521 765.377 205.02C768.242 201.519 772.181 199.768 777.194 199.768C782.207 199.768 786.146 201.519 789.011 205.02C791.876 208.521 793.308 213.833 793.308 220.955C793.308 228.037 791.876 233.349 789.011 236.89C786.146 240.391 782.207 242.142 777.194 242.142ZM777.194 237.308C780.496 237.308 783.083 236.074 784.953 233.607C786.862 231.141 787.817 227.42 787.817 222.447V219.463C787.817 214.49 786.862 210.769 784.953 208.303C783.083 205.836 780.496 204.602 777.194 204.602C773.931 204.602 771.345 205.836 769.436 208.303C767.526 210.769 766.571 214.49 766.571 219.463V222.447C766.571 227.42 767.526 231.141 769.436 233.607C771.345 236.074 773.931 237.308 777.194 237.308ZM810.179 241.426L800.69 200.484H806.24L812.507 228.773C812.706 229.569 812.885 230.544 813.044 231.698C813.243 232.851 813.402 233.866 813.521 234.741C813.681 235.617 813.76 236.054 813.76 236.054H813.999C813.999 236.054 814.039 235.696 814.118 234.98C814.198 234.264 814.317 233.349 814.476 232.235C814.635 231.121 814.815 229.967 815.013 228.773L819.728 200.484H827.009L832.082 228.773C832.281 229.768 832.46 230.842 832.619 231.996C832.778 233.11 832.898 234.065 832.977 234.861C833.097 235.656 833.156 236.054 833.156 236.054H833.395C833.395 236.054 833.455 235.636 833.574 234.801C833.694 233.965 833.853 232.971 834.052 231.817C834.251 230.663 834.45 229.649 834.648 228.773L840.915 200.484H845.689L836.2 241.426H829.397L824.383 213.674C824.264 212.998 824.125 212.202 823.966 211.287C823.846 210.332 823.727 209.417 823.608 208.541C823.528 207.626 823.448 206.89 823.369 206.333C823.289 205.736 823.249 205.438 823.249 205.438H823.011C823.011 205.438 822.971 205.736 822.891 206.333C822.812 206.89 822.712 207.626 822.593 208.541C822.513 209.417 822.394 210.332 822.235 211.287C822.115 212.202 821.996 212.998 821.877 213.674L816.983 241.426H810.179ZM849.971 228.236V222.387H865.011V228.236H849.971ZM888.193 242.142C882.901 242.142 878.883 240.391 876.137 236.89C873.432 233.349 872.079 228.037 872.079 220.955C872.079 213.833 873.432 208.521 876.137 205.02C878.883 201.519 882.901 199.768 888.193 199.768C890.978 199.768 893.445 200.345 895.593 201.499C897.742 202.613 899.413 204.324 900.607 206.632C901.84 208.899 902.457 211.784 902.457 215.285H897.085C897.085 211.704 896.27 209.039 894.638 207.288C893.047 205.498 890.898 204.602 888.193 204.602C884.612 204.602 881.946 205.836 880.196 208.303C878.445 210.769 877.57 214.49 877.57 219.463V222.447C877.57 227.42 878.445 231.141 880.196 233.607C881.946 236.074 884.612 237.308 888.193 237.308C890.938 237.308 893.127 236.432 894.758 234.682C896.429 232.931 897.264 230.285 897.264 226.744H902.457C902.457 230.245 901.84 233.15 900.607 235.457C899.413 237.725 897.742 239.416 895.593 240.53C893.445 241.605 890.978 242.142 888.193 242.142ZM927.809 242.142C922.796 242.142 918.857 240.391 915.992 236.89C913.127 233.349 911.695 228.037 911.695 220.955C911.695 213.833 913.127 208.521 915.992 205.02C918.857 201.519 922.796 199.768 927.809 199.768C932.822 199.768 936.761 201.519 939.626 205.02C942.49 208.521 943.923 213.833 943.923 220.955C943.923 228.037 942.49 233.349 939.626 236.89C936.761 240.391 932.822 242.142 927.809 242.142ZM927.809 237.308C931.111 237.308 933.697 236.074 935.567 233.607C937.477 231.141 938.432 227.42 938.432 222.447V219.463C938.432 214.49 937.477 210.769 935.567 208.303C933.697 205.836 931.111 204.602 927.809 204.602C924.546 204.602 921.96 205.836 920.05 208.303C918.141 210.769 917.186 214.49 917.186 219.463V222.447C917.186 227.42 918.141 231.141 920.05 233.607C921.96 236.074 924.546 237.308 927.809 237.308ZM954.886 241.426V200.484H967.598C972.452 200.484 976.252 202.156 978.997 205.498C981.742 208.8 983.115 213.754 983.115 220.358C983.115 227.361 981.742 232.633 978.997 236.174C976.252 239.675 972.452 241.426 967.598 241.426H954.886ZM960.138 236.651H967.12C970.343 236.651 972.89 235.438 974.76 233.011C976.669 230.544 977.624 226.824 977.624 221.85V218.866C977.624 214.291 976.669 210.889 974.76 208.661C972.89 206.393 970.343 205.259 967.12 205.259H960.138V236.651ZM994.084 241.426V200.484H1019.33V205.259H999.336V218.09H1016.7V222.865H999.336V236.651H1019.69V241.426H994.084ZM1048.06 241.426V200.484H1062.68C1065.39 200.484 1067.64 200.982 1069.43 201.976C1071.26 202.971 1072.63 204.364 1073.54 206.154C1074.46 207.945 1074.92 210.033 1074.92 212.421C1074.92 214.808 1074.42 216.917 1073.42 218.747C1072.43 220.577 1071.02 222.009 1069.19 223.044C1067.4 224.039 1065.23 224.536 1062.68 224.536H1053.31V241.426H1048.06ZM1053.31 219.761H1062.5C1064.61 219.761 1066.28 219.085 1067.52 217.732C1068.79 216.379 1069.43 214.609 1069.43 212.421C1069.43 210.193 1068.83 208.442 1067.64 207.169C1066.44 205.896 1064.73 205.259 1062.5 205.259H1053.31V219.761ZM1084.58 241.426V200.484H1089.83V236.651H1106.54V241.426H1084.58ZM1111.44 241.426L1124.45 200.484H1131.19L1144.2 241.426H1138.53L1135.73 232.294H1119.49L1116.69 241.426H1111.44ZM1120.93 227.52H1134.24L1128.68 209.317C1128.57 208.84 1128.43 208.243 1128.27 207.527C1128.11 206.811 1127.97 206.174 1127.85 205.617C1127.77 205.06 1127.73 204.781 1127.73 204.781H1127.49C1127.49 204.781 1127.43 205.08 1127.31 205.677C1127.23 206.234 1127.11 206.87 1126.95 207.586C1126.83 208.303 1126.7 208.88 1126.54 209.317L1120.93 227.52ZM1156.75 241.426V205.259H1145.59V200.484H1173.17V205.259H1162V241.426H1156.75ZM1182.41 241.426V200.484H1206.05V205.259H1187.67V218.508H1203.9V223.283H1187.67V241.426H1182.41ZM1231.05 242.142C1226.04 242.142 1222.1 240.391 1219.24 236.89C1216.37 233.349 1214.94 228.037 1214.94 220.955C1214.94 213.833 1216.37 208.521 1219.24 205.02C1222.1 201.519 1226.04 199.768 1231.05 199.768C1236.07 199.768 1240.01 201.519 1242.87 205.02C1245.73 208.521 1247.17 213.833 1247.17 220.955C1247.17 228.037 1245.73 233.349 1242.87 236.89C1240.01 240.391 1236.07 242.142 1231.05 242.142ZM1231.05 237.308C1234.36 237.308 1236.94 236.074 1238.81 233.607C1240.72 231.141 1241.68 227.42 1241.68 222.447V219.463C1241.68 214.49 1240.72 210.769 1238.81 208.303C1236.94 205.836 1234.36 204.602 1231.05 204.602C1227.79 204.602 1225.2 205.836 1223.29 208.303C1221.38 210.769 1220.43 214.49 1220.43 219.463V222.447C1220.43 227.42 1221.38 231.141 1223.29 233.607C1225.2 236.074 1227.79 237.308 1231.05 237.308ZM1258.13 241.426V200.484H1274.6C1278.62 200.484 1281.66 201.539 1283.73 203.648C1285.8 205.716 1286.84 208.442 1286.84 211.824C1286.84 214.37 1286.2 216.578 1284.93 218.448C1283.65 220.279 1281.86 221.592 1279.56 222.387L1287.79 241.426H1281.94L1274.36 223.342H1263.38V241.426H1258.13ZM1263.38 218.568H1274.42C1276.53 218.568 1278.2 217.951 1279.44 216.718C1280.71 215.484 1281.35 213.853 1281.35 211.824C1281.35 209.795 1280.75 208.203 1279.56 207.049C1278.36 205.856 1276.65 205.259 1274.42 205.259H1263.38V218.568ZM1296.85 241.426V200.484H1304.85L1312.07 227.341C1312.27 228.097 1312.45 228.992 1312.61 230.026C1312.77 231.061 1312.9 232.076 1313.02 233.07C1313.18 234.065 1313.28 234.9 1313.32 235.577C1313.4 236.213 1313.44 236.532 1313.44 236.532H1313.68C1313.68 236.532 1313.7 236.194 1313.74 235.517C1313.82 234.841 1313.92 234.005 1314.04 233.011C1314.16 232.016 1314.3 231.001 1314.46 229.967C1314.62 228.932 1314.79 228.057 1314.99 227.341L1322.27 200.484H1330.21V241.426H1324.96V211.704C1324.96 211.346 1324.98 210.829 1325.02 210.153C1325.06 209.437 1325.1 208.72 1325.14 208.004C1325.22 207.288 1325.28 206.671 1325.32 206.154C1325.36 205.637 1325.38 205.378 1325.38 205.378H1325.14C1325.14 205.378 1325.08 205.637 1324.96 206.154C1324.88 206.671 1324.76 207.288 1324.6 208.004C1324.44 208.72 1324.28 209.437 1324.12 210.153C1324.01 210.829 1323.89 211.346 1323.77 211.704L1315.59 241.426H1310.88L1302.7 211.704C1302.62 211.426 1302.5 210.949 1302.34 210.272C1302.22 209.596 1302.08 208.88 1301.92 208.124C1301.8 207.368 1301.68 206.731 1301.57 206.214C1301.49 205.657 1301.45 205.378 1301.45 205.378H1301.21C1301.21 205.378 1301.23 205.657 1301.27 206.214C1301.31 206.731 1301.35 207.368 1301.39 208.124C1301.43 208.84 1301.47 209.536 1301.51 210.212C1301.55 210.889 1301.57 211.386 1301.57 211.704V241.426H1296.85Z" fill="#80858E"/>
<g filter="url(#filter0_d_107_76)">
<rect x="7" y="4" width="255" height="255" rx="17.0897" fill="url(#paint0_linear_107_76)" shape-rendering="crispEdges"/>
<rect x="7.65729" y="4.65729" width="253.685" height="253.685" rx="16.4324" stroke="#80858E" stroke-opacity="0.36" stroke-width="1.31459" shape-rendering="crispEdges"/>
</g>
<g filter="url(#filter1_i_107_76)">
<path d="M33.7993 85.8245C33.7993 67.7691 48.4361 53.1323 66.4915 53.1323H70.2658V209.711H33.7993V85.8245ZM65.2463 53.1323H131.876V87.9528H65.2463V53.1323ZM65.2463 174.89H131.876V209.711H65.2463V174.89Z" fill="#4D86D6"/>
</g>
<g filter="url(#filter2_i_107_76)">
<rect x="73.3735" y="116.796" width="48.1779" height="30.9715" rx="15.4858" fill="#36D56C"/>
</g>
<g filter="url(#filter3_i_107_76)">
<path fill-rule="evenodd" clip-rule="evenodd" d="M138.759 53.1323H174.165L174.884 117.652C177.566 115.425 189.988 109.314 193.072 108.618C196.157 107.783 200.113 107.365 204.941 107.365C215.669 107.365 223.38 111.403 228.074 119.477C232.768 127.83 235.115 142.17 235.115 162.496C235.115 182.962 232.768 197.232 228.074 205.306C225.502 207.91 223.193 208.932 221.095 209.711H145.6C141.624 208.88 138.759 205.371 138.759 201.29V53.1323ZM174.892 141.879C182.635 140.445 197.777 139.47 196.4 147.04L197.261 178.872C196.974 181.166 192.099 184.895 174.892 181.453V141.879Z" fill="#193054"/>
</g>
<defs>
<filter id="filter0_d_107_76" x="0.42705" y="0.0562298" width="268.146" height="268.146" filterUnits="userSpaceOnUse" color-interpolation-filters="sRGB">
<feFlood flood-opacity="0" result="BackgroundImageFix"/>
<feColorMatrix in="SourceAlpha" type="matrix" values="0 0 0 0 0 0 0 0 0 0 0 0 0 0 0 0 0 0 127 0" result="hardAlpha"/>
<feOffset dy="2.62918"/>
<feGaussianBlur stdDeviation="3.28647"/>
<feComposite in2="hardAlpha" operator="out"/>
<feColorMatrix type="matrix" values="0 0 0 0 0 0 0 0 0 0 0 0 0 0 0 0 0 0 0.18 0"/>
<feBlend mode="normal" in2="BackgroundImageFix" result="effect1_dropShadow_107_76"/>
<feBlend mode="normal" in="SourceGraphic" in2="effect1_dropShadow_107_76" result="shape"/>
</filter>
<filter id="filter1_i_107_76" x="33.7993" y="53.1323" width="98.0767" height="165.78" filterUnits="userSpaceOnUse" color-interpolation-filters="sRGB">
<feFlood flood-opacity="0" result="BackgroundImageFix"/>
<feBlend mode="normal" in="SourceGraphic" in2="BackgroundImageFix" result="shape"/>
<feColorMatrix in="SourceAlpha" type="matrix" values="0 0 0 0 0 0 0 0 0 0 0 0 0 0 0 0 0 0 127 0" result="hardAlpha"/>
<feOffset dy="9.20213"/>
<feGaussianBlur stdDeviation="5.25836"/>
<feComposite in2="hardAlpha" operator="arithmetic" k2="-1" k3="1"/>
<feColorMatrix type="matrix" values="0 0 0 0 0 0 0 0 0 0 0 0 0 0 0 0 0 0 0.19 0"/>
<feBlend mode="normal" in2="shape" result="effect1_innerShadow_107_76"/>
</filter>
<filter id="filter2_i_107_76" x="73.3735" y="116.796" width="48.1777" height="40.1736" filterUnits="userSpaceOnUse" color-interpolation-filters="sRGB">
<feFlood flood-opacity="0" result="BackgroundImageFix"/>
<feBlend mode="normal" in="SourceGraphic" in2="BackgroundImageFix" result="shape"/>
<feColorMatrix in="SourceAlpha" type="matrix" values="0 0 0 0 0 0 0 0 0 0 0 0 0 0 0 0 0 0 127 0" result="hardAlpha"/>
<feOffset dy="9.20213"/>
<feGaussianBlur stdDeviation="5.25836"/>
<feComposite in2="hardAlpha" operator="arithmetic" k2="-1" k3="1"/>
<feColorMatrix type="matrix" values="0 0 0 0 0 0 0 0 0 0 0 0 0 0 0 0 0 0 0.19 0"/>
<feBlend mode="normal" in2="shape" result="effect1_innerShadow_107_76"/>
</filter>
<filter id="filter3_i_107_76" x="138.759" y="53.1323" width="96.356" height="165.78" filterUnits="userSpaceOnUse" color-interpolation-filters="sRGB">
<feFlood flood-opacity="0" result="BackgroundImageFix"/>
<feBlend mode="normal" in="SourceGraphic" in2="BackgroundImageFix" result="shape"/>
<feColorMatrix in="SourceAlpha" type="matrix" values="0 0 0 0 0 0 0 0 0 0 0 0 0 0 0 0 0 0 127 0" result="hardAlpha"/>
<feOffset dy="9.20213"/>
<feGaussianBlur stdDeviation="5.25836"/>
<feComposite in2="hardAlpha" operator="arithmetic" k2="-1" k3="1"/>
<feColorMatrix type="matrix" values="0 0 0 0 0 0 0 0 0 0 0 0 0 0 0 0 0 0 0.19 0"/>
<feBlend mode="normal" in2="shape" result="effect1_innerShadow_107_76"/>
</filter>
<linearGradient id="paint0_linear_107_76" x1="7" y1="17.759" x2="349.5" y2="273.572" gradientUnits="userSpaceOnUse">
<stop stop-color="white"/>
<stop offset="0.457291" stop-color="#E7E9EB"/>
<stop offset="1" stop-color="#80858E" stop-opacity="0.7"/>
</linearGradient>
</defs>
</svg>
