<svg width="758" height="149" viewBox="0 0 758 149" fill="none" xmlns="http://www.w3.org/2000/svg">
<path d="M565.763 52.8675C565.763 51.0157 565.585 49.1644 565.287 47.2531C564.989 45.2828 564.333 43.4913 563.32 41.8787C562.307 40.2659 560.936 38.9523 559.208 37.8772C557.48 36.8015 555.096 36.2646 552.116 36.2646C550.983 36.2646 549.85 36.4432 548.66 36.7422C547.586 36.9806 546.633 37.2811 545.8 37.6382C544.785 37.9968 543.831 38.4152 542.938 38.8922V71.142C543.95 71.8578 545.023 72.3963 546.156 72.8737C547.168 73.232 548.302 73.5905 549.613 73.8893C550.925 74.1878 552.293 74.1878 553.725 73.8893C556.406 73.4117 558.493 72.4559 560.041 71.0233C561.651 69.4702 562.844 67.7386 563.737 65.7674C564.57 63.7971 565.109 61.6459 565.344 59.4367C565.585 57.1078 565.763 54.8991 565.763 52.8675ZM523.331 3H542.819V26.0525C543.713 25.5748 544.846 25.1556 546.156 24.7984C547.228 24.4399 548.539 24.0807 550.028 23.9019C551.579 23.604 553.248 23.4248 555.096 23.4248C560.996 23.4248 565.824 24.2018 569.638 25.8129C573.51 27.4272 576.61 29.575 578.935 32.3832C581.2 35.0692 582.808 38.1762 583.762 41.6999C584.655 45.2235 585.133 48.9255 585.133 52.8675C585.133 57.1078 584.598 61.2292 583.522 65.2895C582.511 69.2911 580.843 72.874 578.457 76.0988C576.075 79.2637 573.034 81.8332 569.281 83.8024C565.526 85.7135 560.936 86.6693 555.512 86.6693C550.389 86.7299 545.858 86.4314 541.866 85.7741C537.873 85.1768 534.534 84.4606 531.793 83.5643C528.576 82.6677 525.775 81.5937 523.331 80.3391V3Z" fill="white"/>
<path d="M601.999 67.4391C601.999 69.8885 602.774 71.6791 604.383 72.6953C605.992 73.7103 607.9 74.188 610.103 74.188C612.727 74.188 614.93 74.0695 616.779 73.8299C618.686 73.5309 620.176 73.1732 621.248 72.8138V58.7792C620.652 58.7792 619.819 58.8393 618.745 58.9C617.733 58.9581 616.658 59.0788 615.527 59.1381C614.455 59.1976 613.383 59.3172 612.309 59.4964C611.296 59.6755 610.58 59.7348 610.043 59.8547C607.839 60.3929 605.932 61.1693 604.322 62.2436C602.774 63.3182 601.999 65.0499 601.999 67.4391ZM587.219 28.1426C588.887 27.6054 590.972 27.1267 593.534 26.6499C596.038 26.1113 598.601 25.6337 601.224 25.276C603.907 24.7983 606.408 24.499 608.793 24.2595C611.236 23.9616 613.201 23.7827 614.752 23.7827C618.03 23.7827 621.248 24.0214 624.407 24.5591C627.567 25.0359 630.307 25.9914 632.75 27.4266C635.194 28.8583 637.161 30.8896 638.591 33.5166C640.141 36.1457 640.856 39.5497 640.856 43.7305V82.7883C640.856 82.7883 640.141 83.0267 638.652 83.5041C637.279 83.8624 635.314 84.3403 632.693 84.8774C630.189 85.3556 627.089 85.7734 623.395 86.132C619.819 86.4894 615.767 86.7293 611.354 86.7293C607.541 86.7293 603.965 86.5504 600.568 86.132C597.231 85.7734 594.252 84.9372 591.63 83.7422C589.006 82.4289 586.919 80.6369 585.194 78.3678C583.583 75.9788 582.69 72.8129 582.451 68.8113C582.212 65.2282 582.808 62.2428 584.179 59.8538C585.551 57.4056 587.398 55.4347 589.662 53.8816C592.045 52.2693 594.728 51.0148 597.707 50.1199C600.747 49.2242 603.846 48.4478 606.886 47.9095C608.197 47.6708 609.626 47.4319 611.115 47.1937C612.666 46.9554 614.097 46.7748 615.466 46.5959C616.837 46.4174 618.03 46.3575 619.044 46.2379C620.116 46.1784 620.771 46.1183 621.13 46.1183V44.3855C621.13 42.5346 620.949 41.1014 620.534 40.026C620.176 38.9514 619.52 38.175 618.684 37.6376C617.909 37.0996 616.959 36.7415 615.705 36.6214C614.573 36.4425 613.201 36.3832 611.593 36.3832C609.747 36.3832 607.719 36.6214 605.396 37.0993C603.132 37.5775 600.806 38.1149 598.542 38.832C596.277 39.4284 594.131 40.145 592.106 40.922C590.138 41.6391 588.469 42.2358 587.159 42.7741L587.219 28.1426Z" fill="white"/>
<path d="M642.405 41.5801C642.405 38.3552 643.299 35.6669 645.148 33.3978C646.995 31.129 649.259 29.278 652.003 27.9035C654.803 26.4715 657.9 25.3961 661.179 24.7988C664.516 24.0811 667.734 23.7832 670.716 23.7832C673.338 23.7832 675.781 23.9621 678.163 24.3807C680.608 24.6786 682.872 25.0976 684.899 25.5154C687.044 25.9919 689.011 26.4715 690.74 27.0078C692.469 27.5455 694.016 27.9639 695.326 28.2618C695.326 28.2618 695.326 28.9793 695.326 30.4717C695.326 31.9051 695.269 33.5174 695.209 35.3094C695.209 37.0414 695.148 38.6539 695.09 40.1464C695.09 41.5197 695.09 42.2368 695.09 42.2368C693.958 41.5197 692.468 40.923 690.619 40.2662C688.893 39.5505 686.925 38.9524 684.78 38.4158C682.693 37.8776 680.549 37.46 678.343 37.1607C676.199 36.8021 674.232 36.564 672.384 36.564C671.37 36.564 670.298 36.6227 669.045 36.6839C667.794 36.6839 666.662 36.8625 665.591 37.1607C664.576 37.46 663.74 37.9371 663.086 38.6542C662.371 39.2506 662.073 40.1466 662.073 41.2813C662.073 42.8945 662.968 44.1485 664.694 45.0448C666.422 45.8793 668.629 46.7166 671.252 47.4329C673.934 48.1489 676.793 48.8661 679.832 49.7028C682.871 50.4787 685.733 51.5544 688.296 53.0471C690.976 54.4802 693.123 56.3919 694.852 58.78C696.581 61.0491 697.473 64.0948 697.473 67.8588C697.473 71.2034 696.759 74.1289 695.269 76.5777C693.837 78.967 691.812 80.9376 689.189 82.5504C686.687 84.1032 683.586 85.1778 679.892 85.8935C676.317 86.6702 672.263 87.0285 667.855 87.0285C663.74 87.0285 659.986 86.7898 656.65 86.3125C653.31 85.8349 650.392 85.417 647.948 84.9386C645.563 84.4008 643.716 83.9244 642.466 83.445C641.212 82.9685 640.498 82.7293 640.38 82.7293V80.4597C640.38 79.7436 640.38 79.0265 640.38 78.1906C640.439 77.2948 640.498 76.3402 640.498 75.3237C640.498 73.1739 640.558 70.6648 640.618 67.8588C641.869 68.3954 643.358 69.0525 645.205 69.8292C647.114 70.5457 649.199 71.143 651.403 71.7992C653.67 72.397 656.113 72.9934 658.615 73.5317C661.118 74.0099 663.683 74.2488 666.183 74.3086C667.197 74.3086 668.329 74.3086 669.641 74.3086C670.951 74.2488 672.144 74.0702 673.338 73.7111C674.469 73.3528 675.423 72.8148 676.196 72.2187C677.031 71.501 677.449 70.5457 677.449 69.2313C677.449 67.6204 676.555 66.3653 674.827 65.4699C673.158 64.5747 671.011 63.7374 668.39 63.0806C665.768 62.3053 662.966 61.5289 659.926 60.6913C656.888 59.7962 654.027 58.6014 651.463 57.1087C648.842 55.5554 646.696 53.5856 644.909 51.1357C643.241 48.6274 642.405 45.462 642.405 41.5801Z" fill="white"/>
<path d="M738.059 48.1483C737.999 46.4765 737.702 44.9237 737.285 43.4302C736.807 41.9981 736.153 40.6846 735.199 39.6681C734.303 38.5944 733.113 37.757 731.624 37.1598C730.193 36.5631 728.463 36.2643 726.437 36.2643C722.384 36.2643 719.405 37.3392 717.498 39.4895C715.651 41.6395 713.387 45.1028 713.624 50.7176L738.059 48.1483ZM713.922 60.0926C714.221 63.6769 715.532 67.0217 717.675 69.5295C718.987 70.8442 720.597 71.9187 722.622 72.8737C724.591 73.7099 727.034 74.128 729.955 74.128C738.059 73.5308 746.94 72.2178 754.03 69.3503L752.005 84.4606C743.661 86.7892 735.617 86.7892 727.869 86.7892C722.683 86.7892 718.036 86.0721 713.863 84.5794C709.75 83.1473 706.234 81.0563 703.313 78.3688C700.513 75.6215 698.247 72.2765 696.64 68.3948C695.09 64.3946 694.375 59.9143 694.375 54.9575C694.375 49.8215 695.208 45.2828 696.876 41.4012C698.547 37.5195 700.87 34.2348 703.731 31.6653C706.71 28.9792 710.167 27.0078 714.043 25.6945C717.915 24.3203 722.087 23.604 726.437 23.604C730.67 23.604 734.484 24.2596 737.881 25.5746C741.396 26.8884 744.436 28.6799 746.94 30.949C749.562 33.2186 751.647 35.9063 753.255 39.0119C754.865 41.9984 755.938 45.2236 756.474 48.6869C756.773 50.5384 756.951 52.3894 757.07 54.3013C757.13 56.2124 757.01 58.1827 756.713 60.1533L714.221 63.7968" fill="white"/>
<path d="M229.567 85.2702H189V23.8633H229.567V30.7338H198.999V49.772H227.568V56.6433H198.999V78.5424H229.567V85.2702Z" fill="white"/>
<path d="M289.845 85.2702H278.561L259.706 58.6454L240.136 85.2702H230.139L254.278 53.2063L231.709 23.8633H242.281L259.991 47.3378L277.846 23.8633H287.988L265.563 52.9203L289.845 85.2702Z" fill="white"/>
<path d="M337.84 41.8987C337.84 44.4749 337.412 46.9078 336.412 49.198C335.412 51.4888 333.84 53.6363 331.556 55.4958C329.27 57.3573 326.413 58.7881 322.699 59.7902C318.986 60.7922 314.556 61.3649 309.13 61.3649H301.129V85.2702H291.132V23.8633H310.416C315.128 23.8633 319.272 24.2926 322.699 25.1521C326.13 25.8674 328.985 27.1549 331.271 28.5877C333.557 30.1618 335.128 32.0219 336.269 34.1701C337.268 36.4596 337.84 39.0365 337.84 41.8987ZM300.986 54.7818H307.843C311.128 54.7818 313.986 54.4937 316.556 54.0664C318.986 53.637 321.127 52.9203 322.698 51.9182C324.269 50.9168 325.554 49.628 326.413 48.0539C327.27 46.4798 327.699 44.4756 327.699 42.1854C327.699 38.1785 326.268 35.3142 323.269 33.3114C320.413 31.3072 315.841 30.4485 309.559 30.4485H300.987L300.986 54.7818Z" fill="white"/>
<path d="M348.409 60.0768V85.4128H338.411V24.0059H357.408C366.835 24.0059 373.836 25.4373 378.406 28.3009C382.977 31.1631 385.118 35.5995 385.118 41.4686C385.118 43.9028 384.689 46.049 383.834 47.9105C382.977 49.7713 381.834 51.3454 380.405 52.6342C378.977 53.923 377.407 55.067 375.55 55.9271C373.692 56.7858 371.834 57.5012 369.835 58.0739L391.119 85.5568H379.407L360.553 60.0774H348.409M348.409 53.4929H357.122C360.266 53.4929 362.98 53.2062 365.264 52.7768C367.55 52.2041 369.406 51.4894 370.693 50.63C372.121 49.6279 373.265 48.4838 373.835 47.051C374.549 45.6203 374.835 43.9028 374.835 41.8993C374.835 39.8951 374.405 38.1777 373.691 36.7462C372.978 35.3134 371.834 34.1694 370.405 33.3106C368.979 32.4519 367.122 31.7352 364.837 31.3065C362.551 30.8778 359.978 30.7337 356.836 30.7337H348.268L348.409 53.4929Z" fill="white"/>
<path d="M431.685 85.2702H391.119V23.8633H431.685V30.7338H401.118V49.772H429.685V56.6433H401.118V78.5424H431.685V85.2702Z" fill="white"/>
<path d="M479.108 68.9521C479.108 71.671 478.537 74.1045 477.252 76.2514C476.108 78.3989 474.252 80.117 471.966 81.6911C469.68 83.1233 466.966 84.268 463.683 85.1254C460.397 85.8415 456.683 86.2722 452.682 86.2722C448.684 86.2722 444.97 85.9862 441.542 85.5561C438.112 85.1254 435.257 84.4107 432.971 83.4093V75.8233C434.113 76.252 435.542 76.6814 437.113 77.1108C438.684 77.5401 440.257 77.9695 441.969 78.2562C443.684 78.5422 445.399 78.8296 447.255 79.1156C449.112 79.2576 450.826 79.4016 452.682 79.4016C458.397 79.4016 462.538 78.5422 465.254 76.8254C467.967 75.1073 469.395 72.6744 469.395 69.6689C469.395 68.0934 469.111 66.8059 468.539 65.6605C468.109 64.5151 467.109 63.5137 465.825 62.6543C464.538 61.6529 462.825 60.7941 460.682 59.9361C458.539 59.076 455.827 58.0746 452.398 57.0725C449.256 56.0704 446.541 55.0677 444.114 53.9236C441.828 52.7781 439.828 51.4901 438.4 49.9153C436.972 48.4845 435.827 46.7657 434.971 44.9062C434.257 43.0447 433.972 40.8972 433.972 38.607C433.972 36.1742 434.543 33.884 435.687 32.0225C436.829 30.019 438.4 28.4442 440.543 27.1554C442.543 25.868 445.113 24.7239 447.97 24.1505C450.827 23.4351 453.969 23.1484 457.541 23.1484C461.825 23.1484 465.54 23.4351 468.967 24.1505C472.397 24.7239 475.397 25.5813 477.969 26.5841L474.397 33.1686C472.111 32.3092 469.397 31.5938 466.54 31.0217C463.684 30.449 460.539 30.1623 457.398 30.1623C453.112 30.1623 449.686 31.0217 447.257 32.5959C444.829 34.1713 443.685 36.3168 443.685 39.0377C443.685 40.6119 443.97 42.0433 444.541 43.1887C445.114 44.3335 445.971 45.3356 447.257 46.3376C448.542 47.1971 450.112 48.1985 452.112 48.9138C454.112 49.7733 456.684 50.6313 459.684 51.4907C462.968 52.4928 465.683 53.4942 468.111 54.6397C470.538 55.6417 472.681 56.9298 474.254 58.2179C475.824 59.5054 477.109 61.0801 477.969 62.941C478.679 64.3711 479.108 66.5186 479.108 68.9521Z" fill="white"/>
<path d="M520.817 68.9521C520.817 71.671 520.246 74.1045 518.961 76.2514C517.817 78.3989 515.961 80.117 513.676 81.6911C511.389 83.1233 508.675 84.268 505.39 85.1254C502.104 85.8415 498.392 86.2722 494.391 86.2722C490.391 86.2722 486.679 85.9862 483.249 85.5561C479.821 85.1254 476.965 84.4107 474.68 83.4093V75.8233C475.821 76.252 477.251 76.6814 478.822 77.1108C480.393 77.5401 481.963 77.9695 483.678 78.2562C485.393 78.5422 487.106 78.8296 488.964 79.1156C490.821 79.2576 492.536 79.4016 494.391 79.4016C500.107 79.4016 504.248 78.5422 506.96 76.8254C509.675 75.1073 511.104 72.6744 511.104 69.6689C511.104 68.0934 510.819 66.8059 510.246 65.6605C509.819 64.5151 508.82 63.5137 507.534 62.6543C506.248 61.6529 504.534 60.7941 502.39 59.9361C500.248 59.076 497.534 58.0746 494.107 57.0725C490.966 56.0704 488.25 55.0677 485.821 53.9236C483.535 52.7781 481.537 51.4901 480.109 49.9153C478.679 48.4845 477.537 46.7657 476.681 44.9062C475.966 43.0447 475.681 40.8972 475.681 38.607C475.681 36.1742 476.252 33.884 477.394 32.0225C478.537 30.019 480.109 28.4442 482.25 27.1554C484.25 25.868 486.821 24.7239 489.679 24.1505C492.536 23.4351 495.679 23.1484 499.249 23.1484C503.535 23.1484 507.249 23.4351 510.677 24.1505C514.104 24.7239 517.104 25.5813 519.675 26.5841L516.104 33.1686C513.819 32.3092 511.106 31.5938 508.247 31.0217C505.392 30.449 502.249 30.1623 499.108 30.1623C494.822 30.1623 491.393 31.0217 488.966 32.5959C486.536 34.1713 485.395 36.3168 485.395 39.0377C485.395 40.6119 485.68 42.0433 486.25 43.1887C486.823 44.3335 487.68 45.3356 488.966 46.3376C490.251 47.1971 491.821 48.1985 493.821 48.9138C495.822 49.7733 498.393 50.6313 501.393 51.4907C504.677 52.4928 507.392 53.4942 509.82 54.6397C512.248 55.6417 514.39 56.9298 515.962 58.2179C517.533 59.5054 518.817 61.0801 519.675 62.941C520.388 64.3711 520.817 66.5186 520.817 68.9521Z" fill="white"/>
<path d="M199.527 133.396C196.755 133.396 194.577 132.428 192.993 130.492C191.409 128.534 190.617 125.597 190.617 121.681C190.617 117.743 191.409 114.806 192.993 112.87C194.577 110.934 196.755 109.966 199.527 109.966C202.299 109.966 204.477 110.934 206.061 112.87C207.645 114.806 208.437 117.743 208.437 121.681C208.437 125.597 207.645 128.534 206.061 130.492C204.477 132.428 202.299 133.396 199.527 133.396ZM199.527 130.723C201.353 130.723 202.783 130.041 203.817 128.677C204.873 127.313 205.401 125.256 205.401 122.506V120.856C205.401 118.106 204.873 116.049 203.817 114.685C202.783 113.321 201.353 112.639 199.527 112.639C197.723 112.639 196.293 113.321 195.237 114.685C194.181 116.049 193.653 118.106 193.653 120.856V122.506C193.653 125.256 194.181 127.313 195.237 128.677C196.293 130.041 197.723 130.723 199.527 130.723ZM214.499 133V110.362H222.584C224.08 110.362 225.323 110.637 226.313 111.187C227.325 111.737 228.084 112.507 228.59 113.497C229.096 114.487 229.349 115.642 229.349 116.962C229.349 118.282 229.074 119.448 228.524 120.46C227.974 121.472 227.193 122.264 226.181 122.836C225.191 123.386 223.992 123.661 222.584 123.661H217.403V133H214.499ZM217.403 121.021H222.485C223.651 121.021 224.575 120.647 225.257 119.899C225.961 119.151 226.313 118.172 226.313 116.962C226.313 115.73 225.983 114.762 225.323 114.058C224.663 113.354 223.717 113.002 222.485 113.002H217.403V121.021ZM234.691 133V110.362H248.65V113.002H237.595V120.097H247.198V122.737H237.595V130.36H248.848V133H234.691ZM254.883 133V110.362H257.391L265.806 124.585C265.982 124.871 266.169 125.256 266.367 125.74C266.587 126.224 266.774 126.664 266.928 127.06C267.104 127.434 267.192 127.621 267.192 127.621L267.291 127.588C267.291 127.588 267.28 127.39 267.258 126.994C267.258 126.598 267.247 126.158 267.225 125.674C267.203 125.19 267.192 124.827 267.192 124.585V110.362H269.799V133H267.39L258.909 118.579C258.733 118.249 258.524 117.853 258.282 117.391C258.062 116.907 257.864 116.478 257.688 116.104C257.534 115.73 257.457 115.543 257.457 115.543L257.358 115.576C257.358 115.576 257.369 115.763 257.391 116.137C257.413 116.511 257.435 116.94 257.457 117.424C257.479 117.886 257.49 118.271 257.49 118.579V133H254.883ZM292.877 133.396C291.513 133.396 290.248 133.176 289.082 132.736C287.916 132.296 286.981 131.581 286.277 130.591C285.595 129.601 285.254 128.27 285.254 126.598C285.254 126.488 285.254 126.367 285.254 126.235C285.276 126.081 285.287 125.982 285.287 125.938H288.29C288.29 125.96 288.279 126.059 288.257 126.235C288.257 126.389 288.257 126.521 288.257 126.631C288.257 128.017 288.686 129.051 289.544 129.733C290.402 130.393 291.469 130.723 292.745 130.723C294.263 130.723 295.429 130.404 296.243 129.766C297.079 129.106 297.497 128.171 297.497 126.961C297.497 126.147 297.277 125.487 296.837 124.981C296.419 124.475 295.858 124.057 295.154 123.727C294.472 123.397 293.713 123.1 292.877 122.836C292.041 122.572 291.194 122.286 290.336 121.978C289.5 121.67 288.73 121.274 288.026 120.79C287.344 120.306 286.783 119.69 286.343 118.942C285.925 118.172 285.716 117.204 285.716 116.038C285.716 114.652 286.035 113.508 286.673 112.606C287.333 111.704 288.202 111.044 289.28 110.626C290.38 110.186 291.59 109.966 292.91 109.966C294.23 109.966 295.418 110.186 296.474 110.626C297.552 111.044 298.41 111.726 299.048 112.672C299.686 113.596 300.005 114.817 300.005 116.335V116.731H297.002V116.236C297.002 115.07 296.617 114.179 295.847 113.563C295.077 112.947 294.12 112.639 292.976 112.639C291.788 112.639 290.787 112.892 289.973 113.398C289.181 113.904 288.785 114.707 288.785 115.807C288.785 116.577 288.994 117.204 289.412 117.688C289.852 118.172 290.413 118.579 291.095 118.909C291.799 119.217 292.569 119.503 293.405 119.767C294.241 120.031 295.077 120.317 295.913 120.625C296.749 120.933 297.508 121.329 298.19 121.813C298.894 122.297 299.455 122.913 299.873 123.661C300.313 124.387 300.533 125.322 300.533 126.466C300.533 128.16 300.192 129.513 299.51 130.525C298.85 131.537 297.948 132.274 296.804 132.736C295.66 133.176 294.351 133.396 292.877 133.396ZM314.62 133.396C311.848 133.396 309.67 132.428 308.086 130.492C306.502 128.534 305.71 125.597 305.71 121.681C305.71 117.743 306.502 114.806 308.086 112.87C309.67 110.934 311.848 109.966 314.62 109.966C317.392 109.966 319.57 110.934 321.154 112.87C322.738 114.806 323.53 117.743 323.53 121.681C323.53 125.597 322.738 128.534 321.154 130.492C319.57 132.428 317.392 133.396 314.62 133.396ZM314.62 130.723C316.446 130.723 317.876 130.041 318.91 128.677C319.966 127.313 320.494 125.256 320.494 122.506V120.856C320.494 118.106 319.966 116.049 318.91 114.685C317.876 113.321 316.446 112.639 314.62 112.639C312.816 112.639 311.386 113.321 310.33 114.685C309.274 116.049 308.746 118.106 308.746 120.856V122.506C308.746 125.256 309.274 127.313 310.33 128.677C311.386 130.041 312.816 130.723 314.62 130.723ZM337.05 133.396C334.718 133.396 332.892 132.736 331.572 131.416C330.252 130.096 329.592 128.171 329.592 125.641V110.362H332.496V125.806C332.496 127.412 332.903 128.633 333.717 129.469C334.531 130.305 335.642 130.723 337.05 130.723C338.48 130.723 339.591 130.305 340.383 129.469C341.197 128.633 341.604 127.412 341.604 125.806V110.362H344.508V125.641C344.508 128.171 343.848 130.096 342.528 131.416C341.208 132.736 339.382 133.396 337.05 133.396ZM351.266 133V110.362H360.374C362.596 110.362 364.279 110.945 365.423 112.111C366.567 113.255 367.139 114.762 367.139 116.632C367.139 118.04 366.787 119.261 366.083 120.295C365.379 121.307 364.389 122.033 363.113 122.473L367.667 133H364.433L360.242 123.001H354.17V133H351.266ZM354.17 120.361H360.275C361.441 120.361 362.365 120.02 363.047 119.338C363.751 118.656 364.103 117.754 364.103 116.632C364.103 115.51 363.773 114.63 363.113 113.992C362.453 113.332 361.507 113.002 360.275 113.002H354.17V120.361ZM380.926 133.396C378 133.396 375.778 132.428 374.26 130.492C372.764 128.534 372.016 125.597 372.016 121.681C372.016 117.743 372.764 114.806 374.26 112.87C375.778 110.934 378 109.966 380.926 109.966C382.466 109.966 383.83 110.285 385.018 110.923C386.206 111.539 387.13 112.485 387.79 113.761C388.472 115.015 388.813 116.61 388.813 118.546H385.843C385.843 116.566 385.392 115.092 384.49 114.124C383.61 113.134 382.422 112.639 380.926 112.639C378.946 112.639 377.472 113.321 376.504 114.685C375.536 116.049 375.052 118.106 375.052 120.856V122.506C375.052 125.256 375.536 127.313 376.504 128.677C377.472 130.041 378.946 130.723 380.926 130.723C382.444 130.723 383.654 130.239 384.556 129.271C385.48 128.303 385.942 126.84 385.942 124.882H388.813C388.813 126.818 388.472 128.424 387.79 129.7C387.13 130.954 386.206 131.889 385.018 132.505C383.83 133.099 382.466 133.396 380.926 133.396ZM394.614 133V110.362H408.573V113.002H397.518V120.097H407.121V122.737H397.518V130.36H408.771V133H394.614ZM424.46 133V110.362H427.364V130.36H436.604V133H424.46ZM449.872 133.396C447.1 133.396 444.922 132.428 443.338 130.492C441.754 128.534 440.962 125.597 440.962 121.681C440.962 117.743 441.754 114.806 443.338 112.87C444.922 110.934 447.1 109.966 449.872 109.966C452.644 109.966 454.822 110.934 456.406 112.87C457.99 114.806 458.782 117.743 458.782 121.681C458.782 125.597 457.99 128.534 456.406 130.492C454.822 132.428 452.644 133.396 449.872 133.396ZM449.872 130.723C451.698 130.723 453.128 130.041 454.162 128.677C455.218 127.313 455.746 125.256 455.746 122.506V120.856C455.746 118.106 455.218 116.049 454.162 114.685C453.128 113.321 451.698 112.639 449.872 112.639C448.068 112.639 446.638 113.321 445.582 114.685C444.526 116.049 443.998 118.106 443.998 120.856V122.506C443.998 125.256 444.526 127.313 445.582 128.677C446.638 130.041 448.068 130.723 449.872 130.723ZM468.111 133L462.864 110.362H465.933L469.398 126.004C469.508 126.444 469.607 126.983 469.695 127.621C469.805 128.259 469.893 128.82 469.959 129.304C470.047 129.788 470.091 130.03 470.091 130.03H470.223C470.223 130.03 470.245 129.832 470.289 129.436C470.333 129.04 470.399 128.534 470.487 127.918C470.575 127.302 470.674 126.664 470.784 126.004L473.391 110.362H477.417L480.222 126.004C480.332 126.554 480.431 127.148 480.519 127.786C480.607 128.402 480.673 128.93 480.717 129.37C480.783 129.81 480.816 130.03 480.816 130.03H480.948C480.948 130.03 480.981 129.799 481.047 129.337C481.113 128.875 481.201 128.325 481.311 127.687C481.421 127.049 481.531 126.488 481.641 126.004L485.106 110.362H487.746L482.499 133H478.737L475.965 117.655C475.899 117.281 475.822 116.841 475.734 116.335C475.668 115.807 475.602 115.301 475.536 114.817C475.492 114.311 475.448 113.904 475.404 113.596C475.36 113.266 475.338 113.101 475.338 113.101H475.206C475.206 113.101 475.184 113.266 475.14 113.596C475.096 113.904 475.041 114.311 474.975 114.817C474.931 115.301 474.865 115.807 474.777 116.335C474.711 116.841 474.645 117.281 474.579 117.655L471.873 133H468.111ZM490.113 125.707V122.473H498.429V125.707H490.113ZM511.248 133.396C508.322 133.396 506.1 132.428 504.582 130.492C503.086 128.534 502.338 125.597 502.338 121.681C502.338 117.743 503.086 114.806 504.582 112.87C506.1 110.934 508.322 109.966 511.248 109.966C512.788 109.966 514.152 110.285 515.34 110.923C516.528 111.539 517.452 112.485 518.112 113.761C518.794 115.015 519.135 116.61 519.135 118.546H516.165C516.165 116.566 515.714 115.092 514.812 114.124C513.932 113.134 512.744 112.639 511.248 112.639C509.268 112.639 507.794 113.321 506.826 114.685C505.858 116.049 505.374 118.106 505.374 120.856V122.506C505.374 125.256 505.858 127.313 506.826 128.677C507.794 130.041 509.268 130.723 511.248 130.723C512.766 130.723 513.976 130.239 514.878 129.271C515.802 128.303 516.264 126.84 516.264 124.882H519.135C519.135 126.818 518.794 128.424 518.112 129.7C517.452 130.954 516.528 131.889 515.34 132.505C514.152 133.099 512.788 133.396 511.248 133.396ZM533.153 133.396C530.381 133.396 528.203 132.428 526.619 130.492C525.035 128.534 524.243 125.597 524.243 121.681C524.243 117.743 525.035 114.806 526.619 112.87C528.203 110.934 530.381 109.966 533.153 109.966C535.925 109.966 538.103 110.934 539.687 112.87C541.271 114.806 542.063 117.743 542.063 121.681C542.063 125.597 541.271 128.534 539.687 130.492C538.103 132.428 535.925 133.396 533.153 133.396ZM533.153 130.723C534.979 130.723 536.409 130.041 537.443 128.677C538.499 127.313 539.027 125.256 539.027 122.506V120.856C539.027 118.106 538.499 116.049 537.443 114.685C536.409 113.321 534.979 112.639 533.153 112.639C531.349 112.639 529.919 113.321 528.863 114.685C527.807 116.049 527.279 118.106 527.279 120.856V122.506C527.279 125.256 527.807 127.313 528.863 128.677C529.919 130.041 531.349 130.723 533.153 130.723ZM548.125 133V110.362H555.154C557.838 110.362 559.939 111.286 561.457 113.134C562.975 114.96 563.734 117.699 563.734 121.351C563.734 125.223 562.975 128.138 561.457 130.096C559.939 132.032 557.838 133 555.154 133H548.125ZM551.029 130.36H554.89C556.672 130.36 558.08 129.689 559.114 128.347C560.17 126.983 560.698 124.926 560.698 122.176V120.526C560.698 117.996 560.17 116.115 559.114 114.883C558.08 113.629 556.672 113.002 554.89 113.002H551.029V130.36ZM569.799 133V110.362H583.758V113.002H572.703V120.097H582.306V122.737H572.703V130.36H583.956V133H569.799ZM599.645 133V110.362H607.73C609.226 110.362 610.469 110.637 611.459 111.187C612.471 111.737 613.23 112.507 613.736 113.497C614.242 114.487 614.495 115.642 614.495 116.962C614.495 118.282 614.22 119.448 613.67 120.46C613.12 121.472 612.339 122.264 611.327 122.836C610.337 123.386 609.138 123.661 607.73 123.661H602.549V133H599.645ZM602.549 121.021H607.631C608.797 121.021 609.721 120.647 610.403 119.899C611.107 119.151 611.459 118.172 611.459 116.962C611.459 115.73 611.129 114.762 610.469 114.058C609.809 113.354 608.863 113.002 607.631 113.002H602.549V121.021ZM619.837 133V110.362H622.741V130.36H631.981V133H619.837ZM634.689 133L641.883 110.362H645.612L652.806 133H649.671L648.12 127.951H639.144L637.593 133H634.689ZM639.936 125.311H647.295L644.226 115.246C644.16 114.982 644.083 114.652 643.995 114.256C643.907 113.86 643.83 113.508 643.764 113.2C643.72 112.892 643.698 112.738 643.698 112.738H643.566C643.566 112.738 643.533 112.903 643.467 113.233C643.423 113.541 643.357 113.893 643.269 114.289C643.203 114.685 643.126 115.004 643.038 115.246L639.936 125.311ZM659.746 133V113.002H653.575V110.362H668.821V113.002H662.65V133H659.746ZM673.935 133V110.362H687.003V113.002H676.839V120.328H685.815V122.968H676.839V133H673.935ZM700.829 133.396C698.057 133.396 695.879 132.428 694.295 130.492C692.711 128.534 691.919 125.597 691.919 121.681C691.919 117.743 692.711 114.806 694.295 112.87C695.879 110.934 698.057 109.966 700.829 109.966C703.601 109.966 705.779 110.934 707.363 112.87C708.947 114.806 709.739 117.743 709.739 121.681C709.739 125.597 708.947 128.534 707.363 130.492C705.779 132.428 703.601 133.396 700.829 133.396ZM700.829 130.723C702.655 130.723 704.085 130.041 705.119 128.677C706.175 127.313 706.703 125.256 706.703 122.506V120.856C706.703 118.106 706.175 116.049 705.119 114.685C704.085 113.321 702.655 112.639 700.829 112.639C699.025 112.639 697.595 113.321 696.539 114.685C695.483 116.049 694.955 118.106 694.955 120.856V122.506C694.955 125.256 695.483 127.313 696.539 128.677C697.595 130.041 699.025 130.723 700.829 130.723ZM715.801 133V110.362H724.909C727.131 110.362 728.814 110.945 729.958 112.111C731.102 113.255 731.674 114.762 731.674 116.632C731.674 118.04 731.322 119.261 730.618 120.295C729.914 121.307 728.924 122.033 727.648 122.473L732.202 133H728.968L724.777 123.001H718.705V133H715.801ZM718.705 120.361H724.81C725.976 120.361 726.9 120.02 727.582 119.338C728.286 118.656 728.638 117.754 728.638 116.632C728.638 115.51 728.308 114.63 727.648 113.992C726.988 113.332 726.042 113.002 724.81 113.002H718.705V120.361ZM737.211 133V110.362H741.633L745.626 125.212C745.736 125.63 745.835 126.125 745.923 126.697C746.011 127.269 746.088 127.83 746.154 128.38C746.242 128.93 746.297 129.392 746.319 129.766C746.363 130.118 746.385 130.294 746.385 130.294H746.517C746.517 130.294 746.528 130.107 746.55 129.733C746.594 129.359 746.649 128.897 746.715 128.347C746.781 127.797 746.858 127.236 746.946 126.664C747.034 126.092 747.133 125.608 747.243 125.212L751.269 110.362H755.658V133H752.754V116.566C752.754 116.368 752.765 116.082 752.787 115.708C752.809 115.312 752.831 114.916 752.853 114.52C752.897 114.124 752.93 113.783 752.952 113.497C752.974 113.211 752.985 113.068 752.985 113.068H752.853C752.853 113.068 752.82 113.211 752.754 113.497C752.71 113.783 752.644 114.124 752.556 114.52C752.468 114.916 752.38 115.312 752.292 115.708C752.226 116.082 752.16 116.368 752.094 116.566L747.573 133H744.966L740.445 116.566C740.401 116.412 740.335 116.148 740.247 115.774C740.181 115.4 740.104 115.004 740.016 114.586C739.95 114.168 739.884 113.816 739.818 113.53C739.774 113.222 739.752 113.068 739.752 113.068H739.62C739.62 113.068 739.631 113.222 739.653 113.53C739.675 113.816 739.697 114.168 739.719 114.586C739.741 114.982 739.763 115.367 739.785 115.741C739.807 116.115 739.818 116.39 739.818 116.566V133H737.211Z" fill="white"/>
<g filter="url(#filter0_d_102_22)">
<mask id="path-13-inside-1_102_22" fill="white">
<path fill-rule="evenodd" clip-rule="evenodd" d="M18 3C10.8203 3 5 8.8203 5 16V129C5 136.18 10.8203 142 18 142H152C159.18 142 165 136.18 165 129V16C165 8.8203 159.18 3 152 3H18ZM46.2763 27.0135C36.1183 27.3939 28 35.7489 28 46V118H46.2763H49.1935H85V97.7631H49.1935V47.2369H85V27H49.1935H47H46.2763V27.0135ZM51 73C51 68.0294 55.0294 64 60 64H70C74.9706 64 79 68.0294 79 73C79 77.9706 74.9706 82 70 82H60C55.0294 82 51 77.9706 51 73ZM109.577 27H89V113.106C89 115.478 90.6649 117.517 92.9761 118H136.852C138.071 117.547 139.413 116.953 140.908 115.44C143.636 110.747 145 102.454 145 90.56C145 78.7469 143.636 70.413 140.908 65.5583C138.18 60.8654 133.699 58.519 127.463 58.519C124.658 58.519 122.358 58.7617 120.566 59.2472C118.773 59.6517 111.554 63.2029 109.995 64.4975L109.577 27ZM122.5 81.5774C123.3 77.1774 114.5 77.7441 110 78.5774V101.577C120 103.577 122.833 101.411 123 100.077L122.5 81.5774Z"/>
</mask>
<path fill-rule="evenodd" clip-rule="evenodd" d="M18 3C10.8203 3 5 8.8203 5 16V129C5 136.18 10.8203 142 18 142H152C159.18 142 165 136.18 165 129V16C165 8.8203 159.18 3 152 3H18ZM46.2763 27.0135C36.1183 27.3939 28 35.7489 28 46V118H46.2763H49.1935H85V97.7631H49.1935V47.2369H85V27H49.1935H47H46.2763V27.0135ZM51 73C51 68.0294 55.0294 64 60 64H70C74.9706 64 79 68.0294 79 73C79 77.9706 74.9706 82 70 82H60C55.0294 82 51 77.9706 51 73ZM109.577 27H89V113.106C89 115.478 90.6649 117.517 92.9761 118H136.852C138.071 117.547 139.413 116.953 140.908 115.44C143.636 110.747 145 102.454 145 90.56C145 78.7469 143.636 70.413 140.908 65.5583C138.18 60.8654 133.699 58.519 127.463 58.519C124.658 58.519 122.358 58.7617 120.566 59.2472C118.773 59.6517 111.554 63.2029 109.995 64.4975L109.577 27ZM122.5 81.5774C123.3 77.1774 114.5 77.7441 110 78.5774V101.577C120 103.577 122.833 101.411 123 100.077L122.5 81.5774Z" fill="white"/>
<path d="M46.2763 27.0135L46.3137 28.0128L47.2763 27.9768V27.0135H46.2763ZM28 118H27V119H28V118ZM85 118V119H86V118H85ZM85 97.7631H86V96.7631H85V97.7631ZM49.1935 97.7631H48.1935V98.7631H49.1935V97.7631ZM49.1935 47.2369V46.2369H48.1935V47.2369H49.1935ZM85 47.2369V48.2369H86V47.2369H85ZM85 27H86V26H85V27ZM46.2763 27V26H45.2763V27H46.2763ZM89 27V26H88V27H89ZM109.577 27L110.577 26.9888L110.566 26H109.577V27ZM92.9761 118L92.7716 118.979L92.8728 119H92.9761V118ZM136.852 118V119H137.032L137.2 118.937L136.852 118ZM140.908 115.44L141.619 116.143L141.709 116.053L141.773 115.943L140.908 115.44ZM140.908 65.5583L141.78 65.0684L141.776 65.0621L141.773 65.0557L140.908 65.5583ZM120.566 59.2472L120.786 60.2226L120.807 60.218L120.827 60.2124L120.566 59.2472ZM109.995 64.4975L108.995 64.5086L109.019 66.6084L110.634 65.2668L109.995 64.4975ZM110 78.5774L109.818 77.5941L109 77.7456V78.5774H110ZM122.5 81.5774L121.516 81.3985L121.498 81.5007L121.5 81.6044L122.5 81.5774ZM110 101.577H109V102.397L109.804 102.558L110 101.577ZM123 100.077L123.992 100.201L124.002 100.126L124 100.05L123 100.077ZM6 16C6 9.37258 11.3726 4 18 4V2C10.268 2 4 8.26801 4 16H6ZM6 129V16H4V129H6ZM18 141C11.3726 141 6 135.627 6 129H4C4 136.732 10.268 143 18 143V141ZM152 141H18V143H152V141ZM164 129C164 135.627 158.627 141 152 141V143C159.732 143 166 136.732 166 129H164ZM164 16V129H166V16H164ZM152 4C158.627 4 164 9.37258 164 16H166C166 8.26801 159.732 2 152 2V4ZM18 4H152V2H18V4ZM29 46C29 36.2887 36.691 28.3732 46.3137 28.0128L46.2389 26.0142C35.5455 26.4147 27 35.2091 27 46H29ZM29 118V46H27V118H29ZM46.2763 117H28V119H46.2763V117ZM49.1935 117H46.2763V119H49.1935V117ZM85 117H49.1935V119H85V117ZM84 97.7631V118H86V97.7631H84ZM49.1935 98.7631H85V96.7631H49.1935V98.7631ZM48.1935 47.2369V97.7631H50.1935V47.2369H48.1935ZM85 46.2369H49.1935V48.2369H85V46.2369ZM84 27V47.2369H86V27H84ZM49.1935 28H85V26H49.1935V28ZM47 28H49.1935V26H47V28ZM46.2763 28H47V26H46.2763V28ZM47.2763 27.0135V27H45.2763V27.0135H47.2763ZM60 63C54.4772 63 50 67.4771 50 73H52C52 68.5817 55.5817 65 60 65V63ZM70 63H60V65H70V63ZM80 73C80 67.4771 75.5228 63 70 63V65C74.4183 65 78 68.5817 78 73H80ZM70 83C75.5229 83 80 78.5229 80 73H78C78 77.4183 74.4183 81 70 81V83ZM60 83H70V81H60V83ZM50 73C50 78.5229 54.4772 83 60 83V81C55.5817 81 52 77.4183 52 73H50ZM89 28H109.577V26H89V28ZM90 113.106V27H88V113.106H90ZM93.1806 117.021C91.332 116.635 90 115.003 90 113.106H88C88 115.952 89.9979 118.399 92.7716 118.979L93.1806 117.021ZM136.852 117H92.9761V119H136.852V117ZM140.197 114.737C138.843 116.108 137.649 116.637 136.504 117.063L137.2 118.937C138.493 118.457 139.983 117.799 141.619 116.143L140.197 114.737ZM144 90.56C144 102.441 142.626 110.495 140.044 114.938L141.773 115.943C144.646 111 146 102.467 146 90.56H144ZM140.036 66.0482C142.628 70.661 144 78.7663 144 90.56H146C146 78.7275 144.644 70.165 141.78 65.0684L140.036 66.0482ZM127.463 59.519C133.406 59.519 137.524 61.727 140.044 66.0608L141.773 65.0557C138.836 60.0038 133.992 57.519 127.463 57.519V59.519ZM120.827 60.2124C122.503 59.7586 124.706 59.519 127.463 59.519V57.519C124.609 57.519 122.214 57.7649 120.304 58.282L120.827 60.2124ZM110.634 65.2668C110.947 65.0073 111.617 64.5816 112.544 64.0588C113.448 63.5485 114.536 62.9791 115.636 62.4349C116.736 61.8907 117.839 61.3763 118.772 60.9748C119.732 60.5618 120.44 60.3007 120.786 60.2226L120.346 58.2717C119.795 58.3959 118.928 58.7304 117.982 59.1375C117.009 59.5561 115.873 60.0863 114.749 60.6423C113.626 61.1983 112.505 61.7847 111.561 62.3169C110.64 62.8367 109.823 63.3404 109.356 63.7282L110.634 65.2668ZM108.577 27.0112L108.995 64.5086L110.995 64.4863L110.577 26.9888L108.577 27.0112ZM110.182 79.5607C112.387 79.1524 115.602 78.8203 118.124 79.1085C119.401 79.2544 120.365 79.5456 120.94 79.9522C121.213 80.1446 121.372 80.3437 121.458 80.5444C121.542 80.7416 121.587 81.0111 121.516 81.3985L123.484 81.7563C123.613 81.0438 123.558 80.3684 123.297 79.7577C123.037 79.1504 122.604 78.6785 122.094 78.3183C121.104 77.6197 119.736 77.2797 118.351 77.1214C115.548 76.8012 112.113 77.1692 109.818 77.5941L110.182 79.5607ZM111 101.577V78.5774H109V101.577H111ZM122.008 99.9534C122.005 99.9788 121.81 100.675 119.962 101.103C118.179 101.516 115.13 101.584 110.196 100.597L109.804 102.558C114.87 103.571 118.237 103.555 120.413 103.052C122.523 102.563 123.829 101.509 123.992 100.201L122.008 99.9534ZM121.5 81.6044L122 100.104L124 100.05L123.5 81.5504L121.5 81.6044Z" fill="white" fill-opacity="0.36" mask="url(#path-13-inside-1_102_22)"/>
</g>
<defs>
<filter id="filter0_d_102_22" x="0" y="0" width="170" height="149" filterUnits="userSpaceOnUse" color-interpolation-filters="sRGB">
<feFlood flood-opacity="0" result="BackgroundImageFix"/>
<feColorMatrix in="SourceAlpha" type="matrix" values="0 0 0 0 0 0 0 0 0 0 0 0 0 0 0 0 0 0 127 0" result="hardAlpha"/>
<feOffset dy="2"/>
<feGaussianBlur stdDeviation="2.5"/>
<feComposite in2="hardAlpha" operator="out"/>
<feColorMatrix type="matrix" values="0 0 0 0 0 0 0 0 0 0 0 0 0 0 0 0 0 0 0.18 0"/>
<feBlend mode="normal" in2="BackgroundImageFix" result="effect1_dropShadow_102_22"/>
<feBlend mode="normal" in="SourceGraphic" in2="effect1_dropShadow_102_22" result="shape"/>
</filter>
</defs>
</svg>
